<?xml version="1.0" standalone="no"?>
<!DOCTYPE svg PUBLIC "-//W3C//DTD SVG 20010904//EN"
 "http://www.w3.org/TR/2001/REC-SVG-20010904/DTD/svg10.dtd">
<svg version="1.0" xmlns="http://www.w3.org/2000/svg"
 width="727.000000pt" height="727.000000pt" viewBox="0 0 727.000000 727.000000"
 preserveAspectRatio="xMidYMid meet">
<g transform="translate(0.000000,727.000000) scale(0.100000,-0.100000)"
fill="#000000" stroke="none">
<path d="M4835 5384 c-132 -80 -471 -282 -752 -450 l-513 -306 0 -130 c0 -119
1 -128 18 -119 9 5 364 217 787 470 l770 461 804 0 c639 0 802 -3 798 -12 -3
-7 -91 -204 -195 -438 -326 -729 -738 -1651 -887 -1985 -79 -176 -155 -346
-168 -377 l-26 -58 -2113 -2 -2113 -3 -57 -27 c-68 -32 -136 -98 -169 -165
-20 -40 -24 -63 -24 -143 0 -79 4 -103 23 -141 37 -75 87 -125 160 -161 60
-30 76 -33 152 -33 99 0 152 20 220 81 101 92 138 215 104 349 l-6 25 1742 0
1742 0 -6 -25 c-17 -66 -17 -115 -2 -176 28 -107 88 -180 186 -228 46 -22 69
-26 140 -26 71 0 94 4 140 26 77 36 121 78 160 151 62 115 52 245 -27 359
l-35 51 661 1480 661 1479 0 110 0 109 -967 -1 -968 -1 -240 -144z"/>
<path d="M1235 4879 c-60 -100 -111 -185 -113 -189 -2 -6 961 -1957 973 -1969
6 -6 385 181 385 190 0 14 -77 173 -363 747 -162 327 -289 591 -280 588 8 -3
117 -68 241 -145 125 -76 484 -295 797 -486 314 -191 598 -365 632 -386 l62
-39 248 152 c136 83 381 232 543 331 321 196 587 358 805 490 77 47 141 84
142 83 3 -2 -635 -1297 -654 -1328 -4 -7 368 -198 385 -198 5 0 65 116 134
258 70 141 289 585 488 985 l361 728 -107 177 c-59 97 -110 181 -114 185 -4 5
-25 -2 -46 -16 -22 -14 -214 -132 -429 -262 -214 -131 -428 -261 -475 -290
-47 -29 -272 -166 -500 -305 -228 -139 -495 -302 -592 -361 -98 -60 -182 -109
-187 -109 -6 0 -122 68 -258 151 -483 295 -704 430 -1178 719 -264 161 -549
335 -632 386 -84 52 -154 94 -155 94 -2 -1 -52 -82 -113 -181z"/>
</g>
</svg>
